<?xml version="1.0" encoding="UTF-8"?>
<svg width="688.36" height="181.08" viewBox="0 0 512 256" xmlns="http://www.w3.org/2000/svg">
 <g transform="translate(-253.77 391.34)">
  <path d="m25.796-256.5c129.14-52.832 172.19-48.918 197.47-35.065 17.767 11.584 25.594 29.195 49.212 36.356 54.652 10.449 91.83-14.989 136.35-33.793 18.1-6.6333 37.667-12.504 61.187-13.365 46.923 2.8177 95.841 20.428 140.18 29.468 16.319 4.657 33.93 6.6138 51.56 5.8311 44.985 2.7394 93.904-28.568 144.64-45.377 15.791-4.7157 33.402-8.6292 52.969-9.0793 72.399 0.45005 72.399 14.147 136.97 55.239-66.529-39.135-66.529-52.832-136.97-54.339-19.567 1.5067-37.178 5.4202-52.636 9.2358-51.071 17.708-98.033 49.016-145.01 45.886-17.591 1.174-35.202-0.7827-51.873-5.7724-43.987-8.7075-92.906-26.318-139.91-29.371-23.442 1.0958-43.009 6.966-60.483 13.188-43.185 17.258-82.32 44.653-137.25 33.578-25.301-6.5355-33.128-24.146-49.545-36.728-24.674-14.812-67.723-18.726-196.87 34.106" fill="#008020"/>
  <path d="m88.235-280.16c-1.7806-1.7806-1.7806-3.7374-0.50875-5.8702-9.0988-5.6941-5.1854-13.521-2.5438-23.677 1.2719 10.155 7.1421 16.026 2.2111 23.716-0.93923 2.0937-0.93923 4.0504 0.8414 5.8311" fill="#008020"/>
  <path d="m153.02-297.87c1.9176 4.1874 1.9176 10.058 8.5509 12.543 14.891 3.3852 16.848 15.126 22.972 26.944 1.7024 7.7487 3.6591 13.619 7.0443 21.876-7.2986-4.344-13.169-8.2574-17.885-14.754-10.938-9.1575-20.722-16.984-14.108-32.912-0.74356-5.5963-4.657-7.553-6.5746-13.697" fill="#008020"/>
  <path d="m219.02-293.39c4.4027-2.2502 12.23-6.1637 18.393-12.719-4.207-18.883 5.5767-20.839 15.4-28.275 11.701-6.2616 27.355-12.132 50.464-15.184 2.3285 1.0958 6.242-0.86096 9.8033-1.5458-3.5613 4.5983-5.518 6.5551-6.7312 7.2791-14.441 16.887-28.138 28.627-37.53 35.319-10.175 5.0484-16.045 12.875-31.543 2.2111-7.9835 4.794-13.854 8.7075-18.256 12.914" fill="#008020"/>
  <path d="m273.54-254.35c2.7199 9.588 6.6333 17.415 10.821 25.144 17.337 0.09784 21.25 5.968 28.06 11.212 6.8877 12.367 12.758 28.02 18.53 46.727 2.0546 12.601 4.0113 22.385 8.2183 35.926-12.034-7.6704-21.818-15.497-28.96-23.285-16.339-13.736-28.079-27.433-31.817-41.365-2.1328-7.5921-6.0463-15.419 7.2986-29.86-5.518-7.0834-9.4315-14.91-12.151-24.498" fill="#008020"/>
  <path d="m340.11-259.67c2.6807-6.6138 6.5942-16.397 12.719-27.042-13.952-10.879-11.995-18.706-10.488-28.04 2.4068-14.147 12.19-27.844 28.236-43.694 9.3923-9.588 21.133-21.328 39.017-32.893-4.1874 21.348-8.1009 37.002-10.332 49.408-5.5963 20.859-11.466 36.513-19.9 45.592-7.2204 6.5746-11.134 10.488-28.138 8.8836-4.5201 11.388-8.4335 19.215-11.114 27.786" fill="#008020"/>
  <path d="m403.62-285.97c7.6508 4.0309 17.435 9.9011 28.471 10.723 10.488-12.562 16.358-10.606 25.203-13.893 12.68 1.3306 28.334 7.2008 46.805 16.711 10.879 8.1009 26.533 15.928 43.831 27.433-21.211 6.105-36.865 6.105-51.971 5.8115-22.072 2.2502-39.683-1.6632-51.032-10.195-6.2616-5.1658-12.132-9.0793-12.68-26.299-11.193-4.3048-20.976-6.2616-28.627-10.292" fill="#008020"/>
  <path d="m471.52-301.41c6.2811-4.0113 14.108-7.9248 24.264-14.695-4.2853-16.711 1.585-20.624 8.1987-29.488 10.997-8.7466 26.651-14.617 48.351-19.43 11.564-1.0566 25.261-3.0134 42.559-5.0875-11.427 13.815-21.211 21.642-29.919 30.114-16.73 15.008-28.471 24.792-40.915 28.784-9.0793 1.8785-14.949 5.792-29.39-6.6529-9.0401 6.5746-16.867 12.445-23.148 16.456" fill="#008020"/>
  <path d="m541.81-289.26c4.4809 7.3182 10.351 13.188 16.848 17.572 16.984-6.3398 20.898 1.4871 30.623 4.931 9.8424 10.253 19.626 21.994 31.601 40.035 1.7219 5.4397 5.6354 11.31 11.29 17.552-7.6117-0.37178-15.439-4.2852-19.802-6.8877-21.074-5.2245-36.728-15.008-45.886-25.477-6.4964-7.1421-14.323-13.012-7.2595-30.721-7.0638-5.7724-12.934-11.643-17.415-17.004" fill="#008020"/>
  <path d="m612.8-271.51c3.933-0.64572 9.8033-0.64572 16.593-3.8939 4.9505-18.276 16.691-14.362 30.545-17.102 9.6272 0.78269 21.368 2.7394 36.043 3.6004-12.719 6.966-24.459 12.836-32.306 15.341-13.678 3.3656-21.505 11.193-34.478-2.5633-6.5942 2.0154-12.464 3.9722-16.397 4.6179" fill="#008020"/>
  <path d="m688.15-268.6c2.9351 0.35221 6.8486 4.2657 11.466 0.64572 12.993-6.1637 22.776 1.6632 38.352 6.5942 0.07827 0.93923 0.07827 2.896 2.896 1.1153-2.8177 1.7806-2.8177 1.7806-3.0916 0.41092-15.38 3.3264-29.077 7.2399-38.665-5.2636-4.1092-3.1504-8.0226-1.1936-10.958-3.5026" fill="#008020"/>
  <path d="m762.55-295.03c0.93923-0.60658 4.8527-2.5633 7.1225-7.8074 1.6437-14.323 15.341-16.28 30.956-23.011-9.7446 12.601-15.615 26.299-29.253 25.066-5.9289 1.2327-7.8857 5.1462-8.8249 5.7528" fill="#008020"/>
  <path d="m840.48-319.78c1.2719 0.66529 3.2286 2.622 7.6508 0.86097 9.2749-6.0659 19.059 1.7611 30.662 3.0329-11.603 2.6416-23.344 8.5118-30.662-2.9351-4.4222-0.29351-6.379-0.29351-7.6508-0.9588" fill="#008020"/>
  <path d="m925.07-311.72c0.82183 0.43048 0.82183 2.3872 4.1092 0.09784 4.5396-1.6241 8.4531 2.2894 14.48 3.2678-6.0268 0.97837-11.897 2.9351-14.695-2.0741-1.1153-0.86097-3.0721-0.86097-3.8939-1.2914" fill="#008020"/>
  <path d="m23.193-262.84c129.79-50.406 174.8-48.449 202.54-32.599 17.258 13.501 25.085 31.112 47.607 36.2 51.834 10.566 90.969-14.871 134.33-32.658 17.298-5.6941 38.822-11.564 62.44-13.208 48.781 3.6004 95.743 21.211 140.47 30.349 17.885 4.5592 33.538 8.4727 51.188 6.0659 44.966 2.4068 91.928-26.944 144.37-44.555 16.045-3.9135 33.656-7.827 53.223-8.8249 66.529 0.99794 70.443 12.738 123.9 47.275-53.458-32.58-57.372-44.32-123.9-45.279-19.567 0.9588-37.178 4.8723-52.382 9.4706-51.325 16.926-98.287 48.234-145.29 46.727-17.572 1.5067-35.182-0.45005-52.245-5.5376-45.553-8.6096-92.515-24.264-139.61-28.49-21.387 0.31308-40.955 6.1833-59.23 13.365-42.383 18.256-81.518 45.651-139.26 34.693-28.353-6.6529-36.18-26.22-51.169-36.865-22.189-12.836-63.281-16.75-191.78 36.552" fill="#804010"/>
  <path d="m87.746-280.12c-1.2914-5.7332-3.2482-13.56-1.8589-21.798 0.56745 8.2379 0.56745 16.065 2.8373 21.7" fill="#804010"/>
  <path d="m154.18-298.53c6.6333 14.636 14.46 28.334 25.066 43.635-0.82183 2.309-0.82183 2.309 1.5458 2.6025-2.3676-0.29351-2.3676-0.29351-1.7611-2.4459-12.347-15.458-20.174-29.155-27.16-42.481" fill="#804010"/>
  <path d="m217.75-295.17c11.545-8.2966 23.285-16.124 42.285-27.551 6.4377-4.2266 16.221-8.14 26.944-14.167-10.723 7.9835-18.55 11.897-25.379 16.711-16.652 12.797-30.349 20.624-41.307 28.568" fill="#804010"/>
  <path d="m276.16-255.52c5.968 14.676 11.838 28.373 21.368 45.416 4.1679 14.265 11.995 27.962 22.424 44.124-12.386-14.206-20.213-27.903-26.67-41.894-11.153-15.36-17.024-31.014-22.346-45.298" fill="#804010"/>
  <path d="m337.11-260.92c3.7178-13.188 11.545-26.886 21.152-45.905 6.0463-12.288 13.873-25.985 26.24-43.596 1.3306-1.9567 1.3306-3.9135 4.657-7.0834-1.3697 3.1699-3.3264 5.1266-3.8352 7.553-9.2749 19.098-17.102 34.752-21.915 45.69-8.8836 18.413-14.754 34.067-20.311 45.866" fill="#804010"/>
  <path d="m404.8-289.04c12.347 5.1462 28.001 11.016 47.197 16.984 12.112 5.7724 27.766 9.6859 48.175 15.732 1.1153 1.7806 5.0288 3.7374 8.9814 2.7199-3.9526 1.0175-7.8661-0.93923-9.2554-1.6828-20.135-3.1699-37.745-7.0834-49.642-11.173-19.411-3.7374-35.065-9.6076-47.803-16.437" fill="#804010"/>
  <path d="m469.82-303.93c11.897-7.3573 23.637-17.141 42.892-26.709 12.054-6.0855 25.751-13.912 45.886-21.994-0.56746 0.25437 1.3893 0.25437 2.7981-1.2523-1.4088 1.5067-3.3656 1.5067-2.6807 1.5067-18.295 11.74-31.993 19.567-43.381 26.24-17.963 10.938-29.703 20.722-42.129 27.238" fill="#804010"/>
  <path d="m543.55-290.96c10.566 10.977 20.35 22.718 35.573 35.456 6.3007 8.7858 16.084 16.613 27.59 26.103-13.462-7.5334-23.246-15.36-30.075-23.363-16.652-11.564-26.436-23.305-36.591-34.771" fill="#804010"/>
  <path d="m612.39-273.06c14.128-3.0134 27.825-6.9268 49.31-10.547 1.9959-0.29351 5.9094-0.29351 11.917-1.6437-6.0072 1.3502-9.9207 3.3069-11.701 2.7786-19.743 6.3985-35.397 10.312-48.723 12.504" fill="#804010"/>
  <path d="m688.33-269.51c10.586 3.2286 22.326 5.1854 38.215 7.416-15.889-0.27394-27.629-2.2307-38.548-5.5767" fill="#804010"/>
  <path d="m761.98-295.68c7.3769-5.8311 17.161-13.658 28.079-22.072-10.919 10.371-18.746 18.198-26.964 23.363" fill="#804010"/>
  <path d="m840.56-320.43c7.0638 1.311 16.848 3.2678 27.61 3.6591-10.762 1.5654-20.546-0.39135-27.766-2.3676" fill="#804010"/>
  <path d="m925.13-312.03c2.7199 0.74356 8.5901 2.7003 13.932 2.7981-5.3419-0.09784-11.212-0.09784-14.03-2.1916" fill="#804010"/>
 </g>
</svg>
